<?xml version="1.0" encoding="utf-8"?>
<svg xmlns="http://www.w3.org/2000/svg" viewBox="35.4183 39.078 29.1637 21.8448" width="256px" height="191.754434451047px">
  <g id="object-3">
    <path d="M 50 43.75 C 53.426 43.75 56.25 46.574 56.25 50 C 56.25 53.426 53.426 56.25 50 56.25 C 46.575 56.25 43.75 53.426 43.75 50 C 43.75 46.574 46.575 43.75 50 43.75 Z" style="fill-rule: nonzero; fill: rgb(138, 36, 75);" id="object-2" transform="matrix(-1, 0, 0, -1, 99.999997, 100.000003)"/>
    <path d="M 37.504 39.08 C 38.055 39.08 38.586 39.299 38.977 39.689 C 41.711 42.424 43.246 46.135 43.246 50.001 C 43.246 53.868 41.711 57.579 38.977 60.313 C 38.16 61.126 36.844 61.126 36.028 60.313 C 35.215 59.497 35.215 58.181 36.028 57.364 C 37.985 55.411 39.082 52.763 39.082 50.001 C 39.082 47.239 37.985 44.591 36.028 42.638 C 35.215 41.821 35.215 40.505 36.028 39.688 C 36.418 39.298 36.95 39.079 37.504 39.079 L 37.504 39.08 Z" style="fill-rule: nonzero; fill: rgb(208, 39, 82);" id="object-1" transform="matrix(-1, 0, 0, -1, 78.664249, 100.001753)"/>
    <path d="M 62.496 39.078 C 63.051 39.078 63.582 39.297 63.973 39.687 C 64.785 40.504 64.785 41.82 63.973 42.637 C 62.016 44.59 60.918 47.238 60.918 50 C 60.918 52.762 62.016 55.41 63.973 57.363 C 64.785 58.18 64.785 59.496 63.973 60.312 C 63.156 61.125 61.84 61.125 61.024 60.312 C 58.289 57.578 56.754 53.867 56.754 50 C 56.754 46.134 58.289 42.422 61.024 39.688 C 61.414 39.298 61.945 39.079 62.496 39.079 L 62.496 39.078 Z" style="fill-rule: nonzero; fill: rgb(208, 39, 82);" id="object-0" transform="matrix(-1, 0, 0, -1, 121.336001, 99.999748)"/>
  </g>
</svg>